<svg width="36" height="36" viewBox="0 0 45 45" xmlns="http://www.w3.org/2000/svg">
    <path d="M45 22.5a22.5 22.5 0 10-6.59 15.91A22.5 22.5 0 0045 22.5z" fill="#f70"/>
    <path fill="#fff" d="M2.32 21.72a.17.17 0 00-.16.16l-.3 2.26.3 2.22a.17.17 0 00.16.16.17.17 0 00.16-.16l.35-2.22-.35-2.26a.17.17 0 00-.16-.16zM3.99 20.49a.17.17 0 00-.34 0l-.4 3.65.4 3.57a.17.17 0 00.34 0l.45-3.57-.45-3.65zM10.29 17.12a.31.31 0 00-.31.3l-.32 6.72.32 4.34a.31.31 0 00.62 0l.36-4.34-.36-6.72a.32.32 0 00-.31-.3zM7.03 19.45a.24.24 0 00-.24.23l-.36 4.45.36 4.31a.24.24 0 00.48 0l.41-4.31-.41-4.45a.25.25 0 00-.24-.23zM13.6 28.78a.38.38 0 00.38-.37l.31-4.27-.31-8.94a.38.38 0 00-.75 0l-.28 8.94.28 4.27a.38.38 0 00.37.37zM20.38 28.8a.52.52 0 00.52-.51l.22-4.15-.22-10.33a.52.52 0 00-1 0l-.19 10.32.19 4.15a.52.52 0 00.48.52zM16.96 28.79a.45.45 0 00.45-.44l.26-4.2-.27-9a.45.45 0 00-.89 0l-.24 9 .24 4.2a.45.45 0 00.45.44zM8.65 28.75a.28.28 0 00.27-.27l.38-4.34L8.92 20a.275.275 0 00-.55 0l-.34 4.13.34 4.34a.28.28 0 00.28.28zM5.42 28.51a.21.21 0 00.2-.2l.43-4.17-.43-4.33a.21.21 0 00-.2-.2.21.21 0 00-.2.2l-.38 4.33.38 4.17a.21.21 0 00.2.2zM18.67 15a.48.48 0 00-.48.48l-.22 8.68.22 4.18a.5.5 0 001 0l.24-4.18-.24-8.68a.48.48 0 00-.48-.48zM11.94 28.79a.35.35 0 00.34-.34l.34-4.31-.34-8.25a.345.345 0 00-.69 0l-.3 8.25.3 4.31a.35.35 0 00.35.34zM15.69 28.39l.29-4.24-.29-9.24a.41.41 0 00-.82 0l-.26 9.24.26 4.24a.41.41 0 00.82 0zM37.51 18.81a5 5 0 00-1.93.39 8.82 8.82 0 00-8.79-8 8.94 8.94 0 00-3.2.6c-.38.15-.48.3-.48.59v15.83a.61.61 0 00.54.59h13.86a5 5 0 000-10zM22.09 12.33a.56.56 0 00-.55.55l-.23 11.26.23 4.09a.55.55 0 001.1 0l.25-4.09-.25-11.26a.56.56 0 00-.55-.55z"/>
</svg>
