<svg width="36" height="36" viewBox="0 0 40 40" xmlns="http://www.w3.org/2000/svg">
    <path d="M20 40c11.046 0 20-8.954 20-20S31.046 0 20 0 0 8.954 0 20s8.954 20 20 20z" fill="url(#prefix__paint0_linear_apple-music-icon-circle)"/>
    <g opacity=".192" filter="url(#prefix__filter0_f)">
        <path d="M20.15 3.73a16.397 16.397 0 100 32.793 16.397 16.397 0 000-32.793zm8.218 3.254c.388 0 .673.217.783.599.039.133.048 2.567.038 9.696l-.013 9.518-.1.355c-.34 1.207-1.168 2.062-2.342 2.415-.83.249-2.043.341-2.638.2-.53-.124-.914-.346-1.335-.769-.611-.615-.882-1.243-.884-2.047 0-.45.08-.789.292-1.24.302-.64.692-1.024 1.394-1.375.562-.281 1.065-.427 2.533-.734.965-.201 1.2-.288 1.388-.511.259-.307.253-.193.24-5.064-.012-4.231-.016-4.464-.093-4.581-.115-.175-.352-.264-.604-.229-.267.039-9.762 1.96-9.999 2.024a.719.719 0 00-.515.565c-.036.169-.05 2.036-.05 6.633 0 7.062.005 6.901-.277 7.652-.08.214-.225.509-.321.656-.243.37-.709.82-1.072 1.035-.867.513-2.562.776-3.468.54-.96-.252-1.672-.905-1.993-1.827-.154-.442-.19-1.168-.082-1.654.113-.508.374-.992.727-1.346.622-.625 1.357-.915 3.335-1.318.427-.087.868-.188.98-.225.234-.077.49-.32.604-.575.076-.168.081-.578.102-7.632l.023-7.455.103-.211c.123-.249.381-.483.642-.582.168-.063 10.029-2.073 11.702-2.385.378-.07.783-.128.9-.128z"/>
    </g>
    <path d="M20 1.68a18.32 18.32 0 100 36.64 18.32 18.32 0 000-36.64zm8.218 5.178c.388 0 .672.217.783.598.038.133.048 2.568.038 9.696l-.013 9.519-.1.355c-.34 1.207-1.168 2.062-2.343 2.414-.83.25-2.042.342-2.637.201-.53-.125-.915-.346-1.335-.77-.612-.614-.883-1.243-.884-2.047 0-.45.079-.788.292-1.24.301-.639.691-1.024 1.393-1.374.563-.282 1.065-.427 2.534-.734.965-.201 1.2-.288 1.388-.511.258-.308.253-.194.24-5.064-.012-4.232-.017-4.464-.094-4.582-.114-.174-.352-.264-.603-.228-.267.038-9.762 1.96-10 2.023a.719.719 0 00-.514.566c-.036.168-.05 2.035-.05 6.633-.001 7.061.005 6.901-.278 7.652a4.08 4.08 0 01-.32.655c-.243.37-.71.82-1.072 1.035-.867.513-2.562.777-3.468.54-.96-.252-1.672-.905-1.993-1.826-.154-.442-.19-1.169-.083-1.654.113-.508.375-.992.728-1.347.622-.624 1.356-.915 3.335-1.318.427-.087.867-.188.979-.224.235-.077.49-.32.605-.575.075-.168.081-.578.102-7.633l.022-7.455.104-.21c.123-.25.38-.483.641-.582.169-.064 10.03-2.074 11.702-2.385.379-.07.784-.128.9-.128z" fill="#fff"/>
    <defs>
        <linearGradient id="prefix__paint0_linear_apple-music-icon-circle" x2="1" gradientUnits="userSpaceOnUse" gradientTransform="rotate(52.387 19.588 21.775) scale(37.2822)">
            <stop stop-color="#FF5E50"/>
            <stop offset=".249" stop-color="#FE5C6C"/>
            <stop offset=".377" stop-color="#E3658A"/>
            <stop offset=".497" stop-color="#B87EB0"/>
            <stop offset=".627" stop-color="#916CFF"/>
            <stop offset=".763" stop-color="#70BCFB" stop-opacity=".919"/>
            <stop offset="1" stop-color="#21C7FE"/>
        </linearGradient>
        <filter id="prefix__filter0_f" x="1.704" y="1.68" width="36.892" height="36.892" filterUnits="userSpaceOnUse" color-interpolation-filters="sRGB">
            <feFlood flood-opacity="0" result="BackgroundImageFix"/>
            <feBlend in="SourceGraphic" in2="BackgroundImageFix" result="shape"/>
            <feGaussianBlur stdDeviation="1.025" result="effect1_foregroundBlur"/>
        </filter>
    </defs>
</svg>
