<?xml version="1.0" encoding="utf-8"?>
<!-- Generator: Adobe Illustrator 23.0.2, SVG Export Plug-In . SVG Version: 6.00 Build 0)  -->
<svg version="1.1" id="Laag_1" xmlns="http://www.w3.org/2000/svg" xmlns:xlink="http://www.w3.org/1999/xlink" x="0px" y="0px"
	 viewBox="0 0 783.22 179.61" enable-background="new 0 0 783.22 179.61" xml:space="preserve">
<g>
	<path d="M31.72,100.07V35.39v-4.83h16.89v54.88h26.9v14.63H31.72z"/>
	<path d="M97.65,100.07V43.73V30.56h46.73V44.7h-30.53v13.16h28.86V71.3h-28.86v14.43h32.3v14.33H97.65z"/>
	<path d="M185.51,44.89v14.33h26.9v13.84h-26.9v27h-16.59V30.56h45.75v14.33H185.51z"/>
	<path d="M270.09,44.89v55.18H253.3V44.89h-19.64V30.56h56.06v14.33H270.09z"/>
</g>
<g>
	<path d="M476.26,100.07l-5.4-13.65h-26.9l-5.11,13.65h-18.26l29.16-69.51h16.3l28.86,69.51H476.26z M457.61,49.12l-8.84,23.86
		h17.48L457.61,49.12z"/>
	<path d="M509.37,100.07V30.56h16.89v54.88h26.9v14.63H509.37z"/>
	<path d="M576.01,100.07V30.56h16.89v69.51H576.01z"/>
	<path d="M652.62,100.07h-16.79l-26.31-69.51h18.85l16.1,49.28h0.39l16-49.28h18.55L652.62,100.07z"/>
	<path d="M692.34,100.07V30.56h46.73V44.7h-30.53v13.16h28.86V71.3h-28.86v14.43h32.3v14.33H692.34z"/>
</g>
<g>
	<path d="M325.75,85.62c0.05-0.02,0.12-0.04,0.21-0.06L325.75,85.62z"/>
	<path d="M325.75,85.62c0.05-0.02,0.12-0.04,0.21-0.06L325.75,85.62z"/>
	<path d="M336.9,71.03l-11.24,14.62l0.6,15.24l16.01,0.05l16.1-12.67l16.47,12.31l16-0.41l0.26-15.25l-11.4-14.15l16.91-13.32
		l-3.16-24.99l-23.69-2.77l-11.67,14.28l-11.76-14.19l-23.68,2.93l-2.98,25.01l17.15,13.32"/>
</g>
<g>
	<path d="M271.93,138.89c-1.32-0.13-2.54-0.38-3.23-0.64c-2.05-0.72-1.32-3.11,0.1-3.67c0.44,0.04,1.47,0.77,3.86,1.11
		c1.22-5.41,2.39-10.15,2.98-11.43c0.34-0.9,0.49-1.58,2.15-1.58c1.12,0,3.27,0.51,3.96,1.19c-0.83,2.17-1.86,6.91-2.88,11.77
		c5.23-0.9,8.85-4.18,8.85-8.74c0-3.62-3.42-5.76-8.9-5.76c-5.77,0-8.21,2.43-9.29,4.22c0,0-0.24,0.17-0.59,0.13
		c-0.88-0.13-3.13-1.83-3.23-2.86c0,0,2.49-4.65,13.44-4.65c8.26,0,15,3.16,15,8.78c0,5.97-6.26,11.38-15.98,12.24l-1.42,7.25
		c-0.24,0.77,1.61-0.09,1.08,1.15c-0.64,1.36-1.22,3.07-1.91,3.92c-0.24,0.3-0.44,0.51-0.98,0.51c-1.32,0-4.94-1.11-5.23-1.41
		C270.26,147.2,271.05,142.98,271.93,138.89z"/>
	<path d="M301.5,126.14c0.83,0.3,1.47,0.68,1.61,1.07c0,0,0.93-0.51,2.25-0.51c6.6,0,7.67,4.18,7.53,8.66
		c-0.29,4.73-2.69,14.96-10.8,14.96c-6.65,0-9.04-5.93-8.85-10.66C293.53,134.07,297.54,126.95,301.5,126.14z M301.25,146.65
		c4.3,0,6.06-10.66,6.21-13.05c0.1-1.15,0.49-4.01-1.37-4.01c-2.69,0-5.03,7.03-5.57,9.29c-0.05,0.17-1.08-0.17-1.32-0.34
		c0,0-0.34,1.11-0.44,2.6C298.57,144.18,299.4,146.65,301.25,146.65z"/>
	<path d="M318.31,157.52c-0.24,0.9-0.68,0.9-1.17,0.94c-0.54,0.04-3.47-0.72-4.4-1.15c-1.12-0.38,1.03-8.44,2.74-16.33
		c0.24-5.29,1.52-14.45,3.23-14.45c1.47,0,4.55,1.32,4.5,1.79c-0.1,0.51-0.2,1.02-0.24,1.54c1.52-1.88,3.27-3.03,5.08-3.03
		c5.28,0,7.33,4.09,7.23,8.44c-0.15,5.71-3.62,14.84-10.61,14.84c-2.59,0-4.15-0.94-4.99-2.34
		C319.09,151.12,318.61,156.03,318.31,157.52z M323.93,146.52c4.11,0,5.87-10.62,6.01-12.96c0.1-1.19,0.44-4.01-1.32-4.01
		c-2.59,0-4.89,6.99-5.42,9.25c-0.05,0.13-0.88-0.17-1.12-0.38c0,0-0.39,1.28-0.49,2.6C321.44,144.05,322.12,146.52,323.93,146.52z"
		/>
	<path d="M353.9,157.52c-0.24,0.9-0.68,0.9-1.17,0.94c-0.54,0.04-3.47-0.72-4.4-1.15c-1.12-0.38,1.03-8.44,2.74-16.33
		c0.24-5.29,1.52-14.45,3.23-14.45c1.47,0,4.55,1.32,4.5,1.79c-0.1,0.51-0.2,1.02-0.24,1.54c1.52-1.88,3.27-3.03,5.08-3.03
		c5.28,0,7.33,4.09,7.23,8.44c-0.15,5.71-3.62,14.84-10.61,14.84c-2.59,0-4.15-0.94-4.99-2.34
		C354.68,151.12,354.19,156.03,353.9,157.52z M359.52,146.52c4.11,0,5.87-10.62,6.01-12.96c0.1-1.19,0.44-4.01-1.32-4.01
		c-2.59,0-4.89,6.99-5.42,9.25c-0.05,0.13-0.88-0.17-1.12-0.38c0,0-0.39,1.28-0.49,2.6C357.02,144.05,357.71,146.52,359.52,146.52z"
		/>
	<path d="M385.27,143.15c-0.78,1.96-2.93,6.27-5.77,6.27c-2.74,0-6.7-3.03-6.7-5.93c0-4.99,3.03-15.99,5.33-15.99
		c2,0,3.76,0.85,4.15,1.41c-1.81,4.9-3.71,11.6-3.37,15.86l0.64,0.17c3.23-3.75,6.45-13.09,7.28-17.35
		c0.05-0.38,0.64-0.55,1.42-0.55c1.81,0,4.4,1.32,4.35,2.05c-0.2,1.79-2.2,10.4-2.3,13.39c-0.1,1.28,0.34,3.16,1.86,3.16
		c2.05,0,3.13-4.18,3.13-4.18c0.39,0,2.54-0.04,2.54,1.66c0,2-3.08,5.84-7.04,5.84c-4.64,0-5.33-3.33-5.13-5.76L385.27,143.15z"/>
	<path d="M407.51,136.08c-2.05,3.54-4.59,10.06-4.64,13.81c0,0-1.08,0.68-2.79,0.68c-2.83,0-3.62-2.3-3.62-5.54
		c0-9.08,1.91-18.08,5.08-18.08c1.12,0,3.18,0.51,2.98,1.49c-0.88,3.84-2.1,7.5-2.25,11.47h0.2c1.91-4.43,3.86-9.17,6.6-13.47
		c0.15-0.34,0.68-0.6,1.51-0.6c1.71,0,5.33,1.07,5.13,2.43c-0.54,4.39-3.47,10.44-3.47,15.48c0,2.05,0.59,3.03,1.91,3.03
		c1.56,0,2.79-2.77,3.18-3.79c0,0,2.35-0.08,2.35,1.75s-2.69,5.54-7.09,5.54c-4.74,0-6.01-3.2-5.96-6.44
		c0.1-1.71,0.93-5.71,1.47-7.76H407.51z"/>
	<path d="M419,142c0.44-6.57,2.79-17.78,4.25-24.13c0.2-1.02,0.78-1.15,1.12-1.15c1.17,0,3.32,0.51,4.4,0.94
		c0.98,0.38,0.78,0.72,0.64,1.41c-1.27,4.69-2.79,12.19-3.42,14.67c2.79-2.47,8.01-7.29,12.02-7.29c2.39,0,2.98,1.49,2.69,2.3
		c-3.71,1.92-8.31,4.86-11.88,8.14c3.13,3.33,7.67,7.76,11.19,12.19c0.93,1.02,0.93,1.49,0.34,1.88c-0.59,0.38-2.69,1.15-3.62,1.49
		c-0.44,0.13-1.27,0.38-2-0.43c-3.47-4.18-7.58-9.25-9.73-11.21c-0.29,2.47-0.29,5.93-0.15,8.36c0,1.07-0.44,1.41-0.88,1.36
		c-0.93-0.13-3.32-0.6-3.71-0.68c-1.17-0.3-1.27-0.47-1.42-1.41C418.81,147.29,418.76,145.71,419,142z"/>
	<path d="M455.32,132.2c-0.83-0.55-1.52-2.05-1.52-2.86c0-0.9-0.24-0.81,4.45-1.54c0.83-3.71,2-9.25,2.49-11.3
		c0,0,0.68-0.17,1.66-0.17c2.64,0,4.35,0.77,4.35,2.26c0,2.09-1.32,5.84-2.1,8.65c4.2-0.51,7.09-1.11,8.85-1.11s2.93,2.69,2.93,3.62
		c0,0,0,0.55-1.17,0.64c-2.83,0.21-7.58,0.73-11.58,1.24l-0.05,0.21c3.27,2.98,4.79,5.5,4.79,10.36c0,8.87-7.43,14.41-10.46,14.41
		s-4.35-1.96-4.35-4.73c0-1.15,0.15-2.47,0.34-3.84c0.78-6.14,2.59-11.55,3.08-14.67L455.32,132.2z M459.76,151.38
		c-0.05,0.94,0.1,1.62,0.68,1.62c0.63,0,3.91-2.94,4.11-9.51c0.1-2.52-0.2-5.63-2.15-7.89c-0.34,2.34-1.47,7.42-2.25,12.53
		C460.01,149.16,459.81,150.4,459.76,151.38z"/>
	<path d="M479.41,135.61c1.22-2.56,2.25-6.18,2.88-8.1c0.39-1.15,1.86-1.54,3.86-1.15c1.71,0.34,2.15,1.02,2.1,1.83
		c-0.05,1.45-2.35,4.14-2.44,7.04c0,0.55,0.54,1.19,1.27,1.19c2.25,0,3.13-3.07,3.42-3.07c0.29,0,1.86,0.08,1.86,1.28
		c-0.05,2.05-2.1,4.86-5.33,4.86c-3.67,0-4.35-2.3-4.5-4.26c-1.12,2.3-3.52,7.97-3.76,14.07c-1.42,0.6-6.5-0.9-6.5-1.83
		c0-1.24,0.54-4.01,1.27-12.58c0.29-3.67,0.59-8.06,2.74-8.06c1.56,0,3.91,1.19,3.91,1.19c-0.2,2.17-0.88,5.12-1.08,7.46
		L479.41,135.61z"/>
	<path d="M498.96,126.14c0.83,0.3,1.47,0.68,1.61,1.07c0,0,0.93-0.51,2.25-0.51c6.6,0,7.67,4.18,7.53,8.66
		c-0.29,4.73-2.69,14.96-10.8,14.96c-6.65,0-9.04-5.93-8.85-10.66C491,134.07,495.01,126.95,498.96,126.14z M498.72,146.65
		c4.3,0,6.06-10.66,6.21-13.05c0.1-1.15,0.49-4.01-1.37-4.01c-2.69,0-5.03,7.03-5.57,9.29c-0.05,0.17-1.08-0.17-1.32-0.34
		c0,0-0.34,1.11-0.44,2.6C496.03,144.18,496.86,146.65,498.72,146.65z"/>
	<path d="M523.45,136.12c-1.51,3.54-3.81,9.55-3.91,13.26c0,0-0.98,0.68-2.2,0.68c-3.13,0-4.84-2.05-4.84-5.54
		c0-7.38,2.83-17.91,4.25-17.91c1.95,0,4.35,1.07,4.15,1.75c-1.08,3.92-2.54,9.04-2.64,11.6h0.2c1.91-4.39,3.62-8.91,5.13-11.89
		c0.2-0.34,1.08-0.43,1.61-0.43c2.54,0,5.03,1.07,4.84,2.34c-0.34,2.81-1.17,7.25-1.37,10.4h0.2c1.86-4.43,3.47-9.55,6.16-13.86
		c0.2-0.34,1.03-0.51,1.76-0.51c2.39,0,5.47,1.19,5.28,2.56c-0.68,4.31-3.42,10.79-3.42,15.22c0,2.05,0.59,3.03,1.86,3.03
		c1.61,0,2.74-2.64,3.08-3.71c0,0,2.4-0.21,2.4,1.62c0,2.05-2.3,5.54-6.89,5.54c-4.69,0-6.11-2.94-5.96-6.39
		c0.05-1.71,0.98-5.8,1.52-7.84h-0.54c-2,3.54-4.3,10.96-4.4,14.67c0,0-0.93,0.6-2.25,0.6c-3.18,0-4.4-1.88-4.35-4.9
		c0.05-3.28,0.34-7.12,0.73-10.28H523.45z"/>
	<path d="M558.01,128.53c0.68-0.38,3.23-0.9,6.11-1.32c1.08-2.9,2.2-5.07,2.88-5.41c1.08-0.51,4.99,1.36,4.84,1.79l-0.98,2.81
		l1.91-0.13c1.37-0.09,2.54-0.26,2.93,0.3c0.34,0.6,1.08,0.6,1.91,0.98c0.34,0.17,1.27,1.79,1.27,2.05c0,0.3-0.1,0.64-0.93,0.64
		c-2.4,0.04-5.52,0.3-8.55,0.6c-1.61,5.07-3.08,10.53-3.08,13.81c0,1.19,0.59,1.83,1.52,1.83c3.37,0,6.65-3.54,6.89-5.67
		c0,0,3.03-0.47,3.03,2.69c0,3.67-5.57,6.74-10.21,6.74c-4.2,0-7.38-2.94-7.38-7.42c0-2.34,1.08-6.91,2.44-11.17l-2.25,0.34
		C558.74,132.24,557.13,129.04,558.01,128.53z"/>
	<path d="M590.9,134.88c-0.88,1.02-4.79,9.25-5.23,14.67c0,0-0.64,0.47-1.91,0.47c-2.59,0-5.03-1.62-5.03-3.5
		c0-4.05,2.74-27.92,5.08-29.76c0.93-0.68,5.52,0.43,5.52,1.54c0,2.3-0.93,4.09-1.42,5.88c-0.73,2.39-2.74,13.22-2.74,15.01
		l0.44,0.08c1.03-2.56,5.38-12.92,7.58-12.92c2.98,0,5.91,1.45,5.91,2.39c0,2.17-3.08,10.57-3.08,15.35c0,1.62,0.59,2.86,2.05,2.86
		c1.66,0,3.13-2.56,3.67-4.9c0,0,2.79-0.26,2.79,1.79c0,3.03-3.86,6.05-8.41,6.05c-4.5,0-6.16-3.41-6.16-6.69
		c0-2.6,1.12-7.16,1.47-8.23L590.9,134.88z"/>
	<path d="M612.51,125.63c2.35,0,6.06,1.58,6.06,5.88c0,5.41-2.79,10.06-6.26,10.06c-2.59,0-3.52-1.92-3.52-1.92
		s-0.98,2.22-0.98,5.41c0,2.05,0.98,3.28,3.08,3.28c4.2,0,7.14-4.99,7.38-7.59c0,0,0.24-0.43,0.98-0.43c1.51,0,2.74,0.81,2.74,2.3
		c0,3.58-3.18,9.42-10.02,9.42c-4.79,0-9.53-3.03-9.53-8.36C602.44,136.25,606.69,125.63,612.51,125.63z M610.55,138.34
		c1.61,0,2.98-4.39,3.03-7.8c0-1.66-0.29-1.88-0.54-1.88c-0.2,0-0.39,0.17-0.73,0.72c-1.12,2.13-2.39,5.29-2.93,7.93
		C609.38,137.31,609.57,138.34,610.55,138.34z"/>
	<path d="M647.06,134.88c-0.88,1.02-4.79,9.25-5.23,14.67c0,0-0.64,0.47-1.91,0.47c-2.59,0-5.03-1.62-5.03-3.5
		c0-4.05,2.74-27.92,5.08-29.76c0.93-0.68,5.52,0.43,5.52,1.54c0,2.3-0.93,4.09-1.42,5.88c-0.73,2.39-2.74,13.22-2.74,15.01
		l0.44,0.08c1.03-2.56,5.38-12.92,7.58-12.92c2.98,0,5.91,1.45,5.91,2.39c0,2.17-3.08,10.57-3.08,15.35c0,1.62,0.59,2.86,2.05,2.86
		c1.66,0,3.13-2.56,3.67-4.9c0,0,2.79-0.26,2.79,1.79c0,3.03-3.86,6.05-8.41,6.05c-4.5,0-6.16-3.41-6.16-6.69
		c0-2.6,1.12-7.16,1.47-8.23L647.06,134.88z"/>
	<path d="M668.67,125.63c2.35,0,6.06,1.58,6.06,5.88c0,5.41-2.79,10.06-6.26,10.06c-2.59,0-3.52-1.92-3.52-1.92
		s-0.98,2.22-0.98,5.41c0,2.05,0.98,3.28,3.08,3.28c4.2,0,7.14-4.99,7.38-7.59c0,0,0.24-0.43,0.98-0.43c1.51,0,2.74,0.81,2.74,2.3
		c0,3.58-3.18,9.42-10.02,9.42c-4.79,0-9.53-3.03-9.53-8.36C658.6,136.25,662.85,125.63,668.67,125.63z M666.71,138.34
		c1.61,0,2.98-4.39,3.03-7.8c0-1.66-0.29-1.88-0.54-1.88c-0.2,0-0.39,0.17-0.73,0.72c-1.12,2.13-2.39,5.29-2.93,7.93
		C665.54,137.31,665.73,138.34,666.71,138.34z"/>
	<path d="M691.79,146.73c-0.98,1.49-3.18,3.11-5.91,3.11c-4.84,0-8.26-3.2-8.26-8.57c0-7.59,4.2-15.26,11.14-15.26
		c4.5,0,7.09,1.88,7.09,3.58c0,0.26-0.1,0.55-0.1,0.55c0.54,0.17,2.98,0.21,2.64,1.15c-1.47,4.31-2.54,8.65-2.59,11.89
		c-0.1,1.83,0.24,3.2,1.66,3.2c2.25,0,2.88-2.6,3.23-5.29c0,0,2.98-0.34,2.98,1.96c0,2.47-2.35,6.78-7.04,6.78
		c-3.32,0-4.4-2.09-4.55-3.11H691.79z M685.38,146.35c2.49,0,5.13-9.51,5.23-10.96c0,0-1.37-0.26-1.96-0.9
		c0.98-1.19,1.52-2.51,1.61-3.96c0-0.34,0.05-1.32-0.78-1.32c-3.08,0-5.33,9.51-5.52,13.69
		C683.87,145.37,684.26,146.35,685.38,146.35z"/>
	<path d="M709.53,135.61c1.22-2.56,2.25-6.18,2.88-8.1c0.39-1.15,1.86-1.54,3.86-1.15c1.71,0.34,2.15,1.02,2.1,1.83
		c-0.05,1.45-2.35,4.14-2.44,7.04c0,0.55,0.54,1.19,1.27,1.19c2.25,0,3.13-3.07,3.42-3.07c0.29,0,1.86,0.08,1.86,1.28
		c-0.05,2.05-2.1,4.86-5.33,4.86c-3.67,0-4.35-2.3-4.5-4.26c-1.12,2.3-3.52,7.97-3.76,14.07c-1.42,0.6-6.5-0.9-6.5-1.83
		c0-1.24,0.54-4.01,1.27-12.58c0.29-3.67,0.59-8.06,2.74-8.06c1.56,0,3.91,1.19,3.91,1.19c-0.2,2.17-0.88,5.12-1.08,7.46
		L709.53,135.61z"/>
	<path d="M720.72,128.53c0.68-0.38,3.23-0.9,6.11-1.32c1.08-2.9,2.2-5.07,2.88-5.41c1.08-0.51,4.99,1.36,4.84,1.79l-0.98,2.81
		l1.91-0.13c1.37-0.09,2.54-0.26,2.93,0.3c0.34,0.6,1.08,0.6,1.91,0.98c0.34,0.17,1.27,1.79,1.27,2.05c0,0.3-0.1,0.64-0.93,0.64
		c-2.4,0.04-5.52,0.3-8.55,0.6c-1.61,5.07-3.08,10.53-3.08,13.81c0,1.19,0.59,1.83,1.52,1.83c3.37,0,6.65-3.54,6.89-5.67
		c0,0,3.03-0.47,3.03,2.69c0,3.67-5.57,6.74-10.21,6.74c-4.2,0-7.38-2.94-7.38-7.42c0-2.34,1.08-6.91,2.44-11.17l-2.25,0.34
		C721.46,132.24,719.84,129.04,720.72,128.53z"/>
</g>
</svg>
